<?xml version="1.0" encoding="UTF-8"?>
<svg enable-background="new 0 0 507.725 507.725" version="1.1" viewBox="0 0 507.72 507.72" xml:space="preserve" xmlns="http://www.w3.org/2000/svg">
			<g fill="#eeeeee">
				<path d="m253.86 0c-98.399 0-178.17 79.774-178.17 178.17 0 7.532 0.604 14.874 1.526 22.152 15.223 139.18 165.08 299.58 165.08 299.58 2.67 2.988 5.244 4.831 7.723 6.166l0.127 0.064 4.99 1.589 4.99-1.589 0.127-0.064c2.479-1.335 5.053-3.274 7.723-6.166 0 0 147.72-160.69 162.57-299.9 0.89-7.183 1.494-14.461 1.494-21.866 0-98.368-79.774-178.14-178.17-178.14zm145.09 196.67c-11.378 106.66-111.52 231.82-143.78 269.9-33.086-38.107-134.66-162.98-146.42-270.15-0.858-7.024-1.271-12.808-1.271-18.243 0-80.728 65.663-146.39 146.39-146.39 80.759 0 146.39 65.663 146.39 146.39 0 5.371-0.382 11.092-1.303 18.497z"/>
				<path d="m253.86 95.347c-45.671 0-82.825 37.154-82.825 82.825s37.154 82.825 82.825 82.825 82.825-37.154 82.825-82.825-37.154-82.825-82.825-82.825zm0 133.87c-28.159 0-51.043-22.915-51.043-51.043s22.883-51.043 51.043-51.043c28.127 0 51.043 22.883 51.043 51.043s-22.884 51.043-51.043 51.043z"/>
			</g>
</svg>
