<?xml version="1.0" encoding="UTF-8"?>
<svg enable-background="new 0 0 422.678 422.678" version="1.1" viewBox="0 0 422.68 422.68" xml:space="preserve" xmlns="http://www.w3.org/2000/svg">
	<g fill="#eeeeee">
		<path d="m414.54 74.507h-406.41c-4.487 0-8.129 3.641-8.129 8.128v257.41c0 4.495 3.642 8.129 8.129 8.129h406.42c4.495 0 8.129-3.633 8.129-8.129v-257.41c-9e-3 -4.495-3.643-8.128-8.138-8.128zm-8.129 257.41h-390.16v-241.15h390.16v241.15h-8e-3z"/>
		<path d="m71.897 299.94c1.585 1.585 3.666 2.382 5.747 2.382s4.162-0.797 5.747-2.382l75.685-75.685 45.414 45.414c1.585 1.585 3.666 2.382 5.747 2.382s4.162-0.797 5.747-2.382l46.52-46.52 74.58 74.58c1.585 1.585 3.666 2.382 5.747 2.382s4.162-0.797 5.747-2.382c3.178-3.178 3.178-8.316 0-11.494l-74.58-74.58 75.685-75.685c3.178-3.178 3.178-8.316 0-11.494s-8.316-3.178-11.494 0l-81.432 81.44-46.52 46.52-125.74-125.74c-3.178-3.178-8.316-3.178-11.494 0s-3.178 8.316 0 11.494l74.58 74.588-75.685 75.685c-3.178 3.163-3.178 8.308 0 11.478z"/>
	</g>
</svg>
