<svg height="480pt" viewBox="0 0 480 480" width="480pt" xmlns="http://www.w3.org/2000/svg"><g fill="#231f20"><path d="m424 280h-8v-56c0-17.671875-14.328125-32-32-32h-16v-24c0-4.417969-3.582031-8-8-8s-8 3.582031-8 8v24h-320c-8.835938 0-16-7.164062-16-16 0-4.417969-3.582031-8-8-8s-8 3.582031-8 8v272c0 17.671875 14.328125 32 32 32h352c17.671875 0 32-14.328125 32-32v-56h8c30.929688 0 56-25.070312 56-56s-25.070312-56-56-56zm-392-72h352c8.835938 0 16 7.164062 16 16v16h-384v-36.320312c4.863281 2.820312 10.378906 4.308593 16 4.320312zm368 208h-164.960938c-4.417968 0-8 3.582031-8 8s3.582032 8 8 8h164.960938v16c0 8.835938-7.164062 16-16 16h-208.800781c39.308593-24.617188 57.5625-72.285156 44.757812-116.859375-12.804687-44.574219-53.578125-75.28125-99.957031-75.28125s-87.152344 30.707031-99.957031 75.28125c-12.804688 44.574219 5.449219 92.242187 44.757812 116.859375h-32.800781c-8.835938 0-16-7.164062-16-16v-192h384v24h-72c-30.929688 0-56 25.070312-56 56s25.070312 56 56 56h72zm-280 48c-48.601562 0-88-39.398438-88-88s39.398438-88 88-88 88 39.398438 88 88-39.398438 88-88 88zm304-88h-96c-22.089844 0-40-17.910156-40-40s17.910156-40 40-40h96c22.089844 0 40 17.910156 40 40s-17.910156 40-40 40zm0 0"/><path d="m328 312c-13.253906 0-24 10.746094-24 24s10.746094 24 24 24 24-10.746094 24-24-10.746094-24-24-24zm0 32c-4.417969 0-8-3.582031-8-8s3.582031-8 8-8 8 3.582031 8 8-3.582031 8-8 8zm0 0"/><path d="m120 344c6.628906 0 12 5.371094 12 12 0 4.417969 3.582031 8 8 8s8-3.582031 8-8c-.050781-12.339844-8.171875-23.195312-20-26.71875v-9.28125c0-4.417969-3.582031-8-8-8s-8 3.582031-8 8v9.28125c-13.367188 3.902344-21.8125 17.058594-19.800781 30.839844 2.015625 13.777344 13.875 23.964844 27.800781 23.878906 6.628906 0 12 5.371094 12 12s-5.371094 12-12 12-12-5.371094-12-12c0-4.417969-3.582031-8-8-8s-8 3.582031-8 8c.050781 12.339844 8.171875 23.195312 20 26.71875v9.28125c0 4.417969 3.582031 8 8 8s8-3.582031 8-8v-9.28125c13.367188-3.902344 21.8125-17.058594 19.800781-30.839844-2.015625-13.777344-13.875-23.964844-27.800781-23.878906-6.628906 0-12-5.371094-12-12s5.371094-12 12-12zm0 0"/><path d="m48 176c4.417969 0 8-3.582031 8-8v-152h176v152c0 4.417969 3.582031 8 8 8s8-3.582031 8-8v-56h8c0 17.671875 14.328125 32 32 32v24c0 4.417969 3.582031 8 8 8s8-3.582031 8-8v-32c0-4.417969-3.582031-8-8-8h-8c-8.835938 0-16-7.164062-16-16v-8c0-4.417969-3.582031-8-8-8h-16v-16h72v88c0 4.417969 3.582031 8 8 8s8-3.582031 8-8v-96c0-4.417969-3.582031-8-8-8h-80v-56c0-4.417969-3.582031-8-8-8h-192c-4.417969 0-8 3.582031-8 8v160c0 4.417969 3.582031 8 8 8zm0 0"/><path d="m208 176c4.417969 0 8-3.582031 8-8v-96c0-4.417969-3.582031-8-8-8h-8c-8.835938 0-16-7.164062-16-16v-8c0-4.417969-3.582031-8-8-8h-64c-4.417969 0-8 3.582031-8 8v8c0 8.835938-7.164062 16-16 16h-8c-4.417969 0-8 3.582031-8 8v96c0 4.417969 3.582031 8 8 8s8-3.582031 8-8v-88c17.671875 0 32-14.328125 32-32h48c0 17.671875 14.328125 32 32 32v88c0 4.417969 3.582031 8 8 8zm0 0"/><path d="m144 128c-22.089844 0-40 17.910156-40 40 0 4.417969 3.582031 8 8 8s8-3.582031 8-8c0-13.253906 10.746094-24 24-24s24 10.746094 24 24c0 4.417969 3.582031 8 8 8s8-3.582031 8-8c0-22.089844-17.910156-40-40-40zm0 0"/></g></svg>