<svg height="512pt" viewBox="-47 0 512 512" width="512pt" xmlns="http://www.w3.org/2000/svg"><path d="m372.246094 222.640625 30.230468-52.363281c20.523438-35.542969 20.523438-77.980469 0-113.515625-20.519531-35.542969-57.273437-56.761719-98.308593-56.761719h-190.46875c-41.042969 0-77.796875 21.214844-98.308594 56.753906-20.519531 35.539063-20.519531 77.980469 0 113.523438l30.230469 52.359375c6.015625 10.429687 5.6875 23.246093-.851563 33.457031-20.046875 31.308594-30.640625 67.582031-30.640625 104.90625 0 51.359375 19.570313 90.644531 58.171875 116.765625 33.09375 22.394531 80.339844 34.234375 136.628907 34.234375 59.445312 0 108.523437-13.132812 141.917968-37.984375 3.371094-2.507813 4.070313-7.273437 1.5625-10.640625-2.507812-3.371094-7.273437-4.070312-10.644531-1.5625-30.75 22.882812-76.683594 34.976562-132.835937 34.976562-53.238282 0-97.535157-10.933593-128.101563-31.621093-34.164063-23.121094-51.488281-58.167969-51.488281-104.167969 0-34.410156 9.765625-67.851562 28.238281-96.703125 9.621094-15.011719 10.085937-33.886719 1.21875-49.265625l-26.429687-45.773438 39.523437-22.820312 16.214844 28.085938c11.144531 19.3125 34.445312 27.378906 55.402343 19.171874 20.839844-8.15625 42.847657-12.292968 65.421876-12.292968 22.578124 0 44.589843 4.136718 65.429687 12.292968 5.507813 2.15625 11.175781 3.191407 16.746094 3.191407 15.617187 0 30.4375-8.125 38.65625-22.363281l16.214843-28.085938 39.523438 22.820312-26.425781 45.773438c-8.875 15.359375-8.414063 34.234375 1.203125 49.261719 18.484375 28.851562 28.25 62.289062 28.25 96.707031 0 32.667969-8.804688 60.003906-26.164063 81.246094-2.65625 3.253906-2.175781 8.046875 1.078125 10.703125 3.253906 2.660156 8.046875 2.175781 10.703125-1.074219 19.636719-24.035156 29.597657-54.609375 29.597657-90.875 0-37.332031-10.601563-73.609375-30.652344-104.910156-6.539063-10.210938-6.863282-23.03125-.84375-33.449219zm-55.660156-55.71875c-7.359376 12.75-22.789063 18.050781-36.679688 12.609375-22.613281-8.851562-46.496094-13.339844-70.976562-13.339844-24.480469 0-48.355469 4.488282-70.964844 13.339844-13.898438 5.441406-29.324219.140625-36.683594-12.609375l-20.019531-34.675781c-6.769531-11.726563-6.769531-25.726563 0-37.457032 4.511719-7.820312 11.59375-13.726562 19.9375-16.632812 3.96875-1.382812 6.066406-5.71875 4.683593-9.6875-1.382812-3.96875-5.71875-6.0625-9.6875-4.679688-11.792968 4.105469-21.777343 12.417969-28.109374 23.398438-8.230469 14.257812-9.328126 30.898438-3.328126 45.800781l-39.742187 22.949219c-14.121094-29.308594-12.945313-63.015625 3.546875-91.578125 17.765625-30.773437 49.59375-49.148437 85.136719-49.148437h190.46875c35.539062 0 67.363281 18.378906 85.136719 49.160156 16.492187 28.558594 17.667968 62.261718 3.546874 91.566406l-39.742187-22.945312c5.988281-14.875 4.902344-31.492188-3.289063-45.730469-9.367187-16.292969-27.140624-26.410157-46.382812-26.410157h-174.527344c-4.199218 0-7.605468 3.402344-7.605468 7.605469 0 4.199219 3.40625 7.605469 7.605468 7.605469h174.527344c13.8125 0 26.53125 7.195312 33.195312 18.78125 6.742188 11.714844 6.730469 25.699219-.027343 37.402344zm0 0"/><path d="m189.886719 345.15625 15.980469-19.996094c.691406-.890625.773437-1.796875.773437-2.402344 0-3.175781-4.007813-6.277343-7-6.277343-1.460937 0-2.554687.574219-3.4375 1.8125l-18.964844 25.808593v-23.773437c0-2.65625-3.0625-3.847656-6.097656-3.847656-2.8125 0-6.097656 1.007812-6.097656 3.847656v58.441406c0 2.707031 3.160156 3.941407 6.097656 3.941407 3.03125 0 6.097656-1.351563 6.097656-3.941407v-17.53125l4.585938-5.773437 16.703125 25.324218c.933594 1.527344 2.449218 2.371094 4.261718 2.371094 3.601563 0 7.269532-3.078125 7.269532-6.097656 0-.839844-.230469-1.585938-.671875-2.207031zm0 0"/><path d="m240.726562 327.234375c7.574219 0 8.839844 4.632813 9.097657 8.65625.082031 2.574219 2.191406 3.933594 6.097656 3.933594 3.765625 0 6.097656-.976563 6.097656-5.828125 0-10.480469-8.734375-17.515625-21.742187-17.515625-18.210938 0-20.929688 13.054687-20.929688 20.839843v25.085938c0 13.4375 7.5625 20.839844 21.289063 20.839844 13.789062 0 21.382812-7.402344 21.382812-20.839844v-10.699219c0-2.003906-1.351562-4.03125-3.9375-4.03125h-15.285156c-2.5 0-3.851563 2.492188-3.851563 4.839844 0 2.402344 1.324219 4.835937 3.851563 4.835937h7.027344v5.054688c0 6.597656-3.175781 10.085938-9.1875 10.085938-6.035157 0-9.097657-3.394532-9.097657-10.085938v-25.085938c0-6.691406 3.09375-10.085937 9.1875-10.085937zm0 0"/><path d="m208.933594 255.1875c-50.226563 0-91.085938 40.859375-91.085938 91.085938 0 50.222656 40.859375 91.085937 91.085938 91.085937 50.222656 0 91.082031-40.863281 91.082031-91.085937 0-50.226563-40.859375-91.085938-91.082031-91.085938zm0 166.957031c-41.835938 0-75.875-34.035156-75.875-75.871093 0-41.835938 34.039062-75.875 75.875-75.875 41.832031 0 75.871094 34.039062 75.871094 75.875 0 41.835937-34.035157 75.871093-75.871094 75.871093zm0 0"/></svg>