<?xml version="1.0" encoding="UTF-8"?>
<svg width="512pt" height="512pt" viewBox="-47 0 512 512" xmlns="http://www.w3.org/2000/svg">
<path d="m372.25 222.64 30.23-52.363c20.523-35.543 20.523-77.98 0-113.52-20.52-35.543-57.273-56.762-98.309-56.762h-190.47c-41.043 0-77.797 21.215-98.309 56.754-20.52 35.539-20.52 77.98 0 113.52l30.23 52.359c6.0156 10.43 5.6875 23.246-0.85156 33.457-20.047 31.309-30.641 67.582-30.641 104.91 0 51.359 19.57 90.645 58.172 116.77 33.094 22.395 80.34 34.234 136.63 34.234 59.445 0 108.52-13.133 141.92-37.984 3.3711-2.5078 4.0703-7.2734 1.5625-10.641-2.5078-3.3711-7.2734-4.0703-10.645-1.5625-30.75 22.883-76.684 34.977-132.84 34.977-53.238 0-97.535-10.934-128.1-31.621-34.164-23.121-51.488-58.168-51.488-104.17 0-34.41 9.7656-67.852 28.238-96.703 9.6211-15.012 10.086-33.887 1.2188-49.266l-26.43-45.773 39.523-22.82 16.215 28.086c11.145 19.312 34.445 27.379 55.402 19.172 20.84-8.1562 42.848-12.293 65.422-12.293 22.578 0 44.59 4.1367 65.43 12.293 5.5078 2.1562 11.176 3.1914 16.746 3.1914 15.617 0 30.438-8.125 38.656-22.363l16.215-28.086 39.523 22.82-26.426 45.773c-8.875 15.359-8.4141 34.234 1.2031 49.262 18.484 28.852 28.25 62.289 28.25 96.707 0 32.668-8.8047 60.004-26.164 81.246-2.6562 3.2539-2.1758 8.0469 1.0781 10.703 3.2539 2.6602 8.0469 2.1758 10.703-1.0742 19.637-24.035 29.598-54.609 29.598-90.875 0-37.332-10.602-73.609-30.652-104.91-6.5391-10.211-6.8633-23.031-0.84375-33.449zm-55.66-55.719c-7.3594 12.75-22.789 18.051-36.68 12.609-22.613-8.8516-46.496-13.34-70.977-13.34-24.48 0-48.355 4.4883-70.965 13.34-13.898 5.4414-29.324 0.14062-36.684-12.609l-20.02-34.676c-6.7695-11.727-6.7695-25.727 0-37.457 4.5117-7.8203 11.594-13.727 19.938-16.633 3.9688-1.3828 6.0664-5.7188 4.6836-9.6875-1.3828-3.9688-5.7188-6.0625-9.6875-4.6797-11.793 4.1055-21.777 12.418-28.109 23.398-8.2305 14.258-9.3281 30.898-3.3281 45.801l-39.742 22.949c-14.121-29.309-12.945-63.016 3.5469-91.578 17.766-30.773 49.594-49.148 85.137-49.148h190.47c35.539 0 67.363 18.379 85.137 49.16 16.492 28.559 17.668 62.262 3.5469 91.566l-39.742-22.945c5.9883-14.875 4.9023-31.492-3.2891-45.73-9.3672-16.293-27.141-26.41-46.383-26.41h-174.53c-4.1992 0-7.6055 3.4023-7.6055 7.6055 0 4.1992 3.4062 7.6055 7.6055 7.6055h174.53c13.812 0 26.531 7.1953 33.195 18.781 6.7422 11.715 6.7305 25.699-0.027343 37.402z"/>
<path d="m189.89 345.16 15.98-19.996c0.69141-0.89062 0.77344-1.7969 0.77344-2.4023 0-3.1758-4.0078-6.2773-7-6.2773-1.4609 0-2.5547 0.57422-3.4375 1.8125l-18.965 25.809v-23.773c0-2.6562-3.0625-3.8477-6.0977-3.8477-2.8125 0-6.0977 1.0078-6.0977 3.8477v58.441c0 2.707 3.1602 3.9414 6.0977 3.9414 3.0312 0 6.0977-1.3516 6.0977-3.9414v-17.531l4.5859-5.7734 16.703 25.324c0.93359 1.5273 2.4492 2.3711 4.2617 2.3711 3.6016 0 7.2695-3.0781 7.2695-6.0977 0-0.83984-0.23047-1.5859-0.67188-2.207z"/>
<path d="m240.73 327.23c7.5742 0 8.8398 4.6328 9.0977 8.6562 0.082031 2.5742 2.1914 3.9336 6.0977 3.9336 3.7656 0 6.0977-0.97656 6.0977-5.8281 0-10.48-8.7344-17.516-21.742-17.516-18.211 0-20.93 13.055-20.93 20.84v25.086c0 13.438 7.5625 20.84 21.289 20.84 13.789 0 21.383-7.4023 21.383-20.84v-10.699c0-2.0039-1.3516-4.0312-3.9375-4.0312h-15.285c-2.5 0-3.8516 2.4922-3.8516 4.8398 0 2.4023 1.3242 4.8359 3.8516 4.8359h7.0273v5.0547c0 6.5977-3.1758 10.086-9.1875 10.086-6.0352 0-9.0977-3.3945-9.0977-10.086v-25.086c0-6.6914 3.0938-10.086 9.1875-10.086z"/>
<path d="m208.93 255.19c-50.227 0-91.086 40.859-91.086 91.086 0 50.223 40.859 91.086 91.086 91.086 50.223 0 91.082-40.863 91.082-91.086 0-50.227-40.859-91.086-91.082-91.086zm0 166.96c-41.836 0-75.875-34.035-75.875-75.871 0-41.836 34.039-75.875 75.875-75.875 41.832 0 75.871 34.039 75.871 75.875 0 41.836-34.035 75.871-75.871 75.871z"/>
</svg>
