<?xml version="1.0" encoding="UTF-8"?>
<svg enable-background="new 0 0 511.998 511.998" version="1.1" viewBox="0 0 512 512" xml:space="preserve" xmlns="http://www.w3.org/2000/svg">
		<path d="m414.5 188.52h-32.234l9.712-111.51c0.018-0.202 0.021-0.401 0.022-0.6 0-0.017 2e-3 -0.033 2e-3 -0.05v-8e-3c0-3.035-1.831-5.71-4.522-6.873-0.023-0.01-0.045-0.022-0.068-0.032-0.167-0.07-0.34-0.13-0.514-0.188-0.065-0.021-0.127-0.047-0.192-0.067-0.142-0.043-0.288-0.077-0.433-0.112-0.102-0.024-0.2-0.053-0.303-0.073-0.127-0.025-0.259-0.041-0.389-0.06-0.122-0.018-0.242-0.039-0.365-0.05-0.021-2e-3 -0.04-6e-3 -0.061-8e-3 -0.132-0.012-0.262-0.01-0.393-0.015-0.088-3e-3 -0.174-0.013-0.262-0.013h-0.094-0.023-153.37c-4.14 0-7.5 3.36-7.5 7.5 0 4.13 3.36 7.5 7.5 7.5h145.31l-14.926 171.38c-2e-3 0.013-2e-3 0.026-4e-3 0.039l-3.766 43.241h-260.61l4.359-44.998h49.621c4.143 0 7.5-3.358 7.5-7.5s-3.357-7.5-7.5-7.5h-48.167l9.204-94.995h78.975c4.143 0 7.5-3.358 7.5-7.5s-3.357-7.5-7.5-7.5h-77.521l4.328-44.662h83.193c4.13 0 7.5-3.37 7.5-7.5 0-4.14-3.37-7.5-7.5-7.5h-90c-4e-3 0-7e-3 1e-3 -0.011 1e-3 -3.523-1e-3 -6.579 2.479-7.318 5.917-5e-3 0.025-0.014 0.049-0.019 0.074-0.038 0.187-0.063 0.378-0.088 0.57-7e-3 0.061-0.02 0.119-0.026 0.18-1e-3 0.012-4e-3 0.023-5e-3 0.035l-5.124 52.885h-90.919c-4.143 0-7.5 3.358-7.5 7.5s3.357 7.5 7.5 7.5h89.465l-9.204 94.995h-26.759c-4.143 0-7.5 3.358-7.5 7.5s3.357 7.5 7.5 7.5h25.306l-5.012 51.721c-1e-3 8e-3 -1e-3 0.016-2e-3 0.023l-7.749 79.979c-1e-3 9e-3 -2e-3 0.019-3e-3 0.027l-3e-3 0.029c-0.01 0.104-9e-3 0.206-0.015 0.31-7e-3 0.138-0.021 0.273-0.021 0.413 0 6e-3 1e-3 0.012 1e-3 0.019 0 0.193 0.014 0.383 0.028 0.573 6e-3 0.061 4e-3 0.123 0.011 0.183 0.02 0.194 0.053 0.385 0.088 0.575 0.01 0.056 0.015 0.113 0.026 0.168 0.029 0.144 0.07 0.283 0.108 0.424 0.026 0.099 0.047 0.2 0.077 0.297 9e-3 0.027 0.021 0.053 0.029 0.081 0.363 1.116 0.979 2.118 1.783 2.936 0.015 0.015 0.027 0.032 0.042 0.046 0.08 0.08 0.167 0.152 0.251 0.228 0.517 0.474 1.101 0.876 1.74 1.191 0.133 0.066 0.264 0.135 0.4 0.192 0.041 0.018 0.085 0.03 0.127 0.046 0.188 0.075 0.377 0.147 0.572 0.208 0.018 5e-3 0.035 8e-3 0.053 0.014 0.222 0.066 0.446 0.124 0.675 0.171 0.03 6e-3 0.061 8e-3 0.09 0.014 0.218 0.041 0.437 0.076 0.66 0.098 5e-3 0 9e-3 1e-3 0.014 2e-3 0.246 0.024 0.49 0.036 0.732 0.036 3e-3 0 7e-3 -1e-3 0.011-1e-3h33.388c3.687 27.953 27.652 49.603 56.597 49.603 28.943 0 52.908-21.65 56.595-49.603h120.3c3.688 27.953 27.652 49.603 56.596 49.603 28.943 0 52.91-21.65 56.598-49.603h33.396c5e-3 0 0.011 1e-3 0.016 1e-3 0.25 0 0.496-0.015 0.74-0.039 0.044-4e-3 0.086-0.013 0.13-0.018 0.195-0.023 0.389-0.05 0.579-0.088 0.082-0.016 0.161-0.038 0.242-0.057 0.147-0.034 0.295-0.07 0.439-0.113 0.098-0.029 0.193-0.063 0.289-0.096 0.123-0.042 0.246-0.086 0.367-0.135 0.104-0.041 0.203-0.086 0.304-0.131 0.11-0.051 0.22-0.103 0.327-0.158 0.102-0.052 0.2-0.106 0.298-0.162 0.103-0.06 0.205-0.122 0.306-0.186 0.094-0.06 0.188-0.121 0.278-0.185 0.102-0.071 0.199-0.146 0.298-0.222 0.082-0.065 0.165-0.129 0.245-0.197 0.103-0.087 0.2-0.178 0.298-0.271 0.068-0.065 0.139-0.129 0.205-0.197 0.104-0.106 0.203-0.218 0.302-0.331 0.053-0.061 0.108-0.12 0.159-0.182 0.11-0.136 0.21-0.276 0.31-0.417 0.034-0.049 0.072-0.095 0.105-0.145 0.122-0.183 0.237-0.371 0.343-0.565 8e-3 -0.012 0.016-0.023 0.021-0.036 0.113-0.208 0.217-0.421 0.31-0.641 0.026-0.063 0.046-0.128 0.071-0.191 0.061-0.155 0.121-0.31 0.172-0.471 0.033-0.104 0.057-0.211 0.086-0.316 0.033-0.125 0.068-0.249 0.096-0.376 0.025-0.113 0.041-0.229 0.06-0.344 0.017-0.101 0.039-0.2 0.052-0.303 0.318-2.548 6.191-49.667 8.814-80.135 3e-3 -0.029 4e-3 -0.059 7e-3 -0.088 0.755-8.783 1.239-16.179 1.239-20.707 0-53.761-43.738-97.5-97.5-97.5zm-33.541 15.002h30.683l-3.919 44.996h-30.683l3.919-44.996zm-209.95 224.6c-23.217 0-42.105-18.888-42.105-42.104s18.889-42.104 42.105-42.104 42.104 18.888 42.104 42.104-18.888 42.104-42.104 42.104zm233.49 0c-23.216 0-42.103-18.888-42.103-42.104s18.888-42.104 42.103-42.104c23.217 0 42.105 18.888 42.105 42.104s-18.888 42.104-42.105 42.104zm83.367-49.607h-26.767c-3.686-27.955-27.652-49.606-56.598-49.606-28.944 0-52.91 21.652-56.596 49.606h-120.3c-3.686-27.955-27.651-49.606-56.596-49.606s-52.912 21.652-56.598 49.606h-25.144l6.299-65.004h268.94v4e-3h0.011c0.251 0 0.5-0.014 0.746-0.039 0.046-4e-3 0.091-0.014 0.137-0.02 0.196-0.023 0.391-0.051 0.583-0.089 0.083-0.017 0.164-0.04 0.246-0.06 0.15-0.036 0.3-0.071 0.446-0.115 0.1-0.03 0.195-0.066 0.292-0.1 0.126-0.044 0.252-0.087 0.374-0.137 0.105-0.043 0.206-0.091 0.308-0.139 0.111-0.051 0.222-0.102 0.329-0.158 0.102-0.054 0.202-0.112 0.303-0.17 0.103-0.06 0.205-0.121 0.305-0.185 0.097-0.063 0.189-0.129 0.282-0.195 0.099-0.07 0.195-0.142 0.291-0.217 0.086-0.069 0.171-0.14 0.255-0.213 0.095-0.082 0.188-0.166 0.278-0.253 0.076-0.073 0.152-0.148 0.226-0.225 0.09-0.094 0.177-0.191 0.263-0.29 0.067-0.078 0.133-0.156 0.197-0.236 0.083-0.105 0.162-0.213 0.24-0.322 0.059-0.082 0.116-0.164 0.172-0.248 0.073-0.113 0.143-0.229 0.21-0.347 0.051-0.088 0.103-0.176 0.149-0.266 0.063-0.118 0.117-0.238 0.174-0.359 0.044-0.097 0.089-0.192 0.129-0.292 0.049-0.118 0.09-0.239 0.133-0.36 0.037-0.107 0.076-0.214 0.109-0.324 0.033-0.116 0.06-0.235 0.09-0.353 0.029-0.119 0.061-0.237 0.084-0.358 0.023-0.118 0.037-0.238 0.055-0.358 0.018-0.124 0.039-0.246 0.051-0.372 2e-3 -0.018 6e-3 -0.035 7e-3 -0.053l3.759-43.15h38.762c22.979 0 33.343 11.906 44.314 24.512 9.053 10.401 19.16 22.006 36.34 24.837-2.182 23.07-5.709 52.686-7.287 65.654zm8.569-80.684c-11.145-2.272-18.002-10.107-26.309-19.651-10.389-11.935-23.072-26.5-47.385-29.214l3.88-44.548c39.764 5.881 70.38 40.229 70.38 81.602 0 2.811-0.21 6.895-0.566 11.811z"/>
		<path d="m171.01 358.52c-15.163 0-27.5 12.336-27.5 27.5s12.337 27.5 27.5 27.5 27.5-12.336 27.5-27.5c0-15.163-12.337-27.5-27.5-27.5zm0 40c-6.893 0-12.5-5.607-12.5-12.5s5.607-12.5 12.5-12.5 12.5 5.607 12.5 12.5-5.608 12.5-12.5 12.5z"/>
		<path d="m404.5 358.52c-15.163 0-27.5 12.336-27.5 27.5s12.337 27.5 27.5 27.5 27.5-12.336 27.5-27.5c0-15.163-12.337-27.5-27.5-27.5zm0 40c-6.893 0-12.5-5.607-12.5-12.5s5.607-12.5 12.5-12.5 12.5 5.607 12.5 12.5-5.607 12.5-12.5 12.5z"/>
		<path d="m71 188.53h-36.666c-4.143 0-7.5 3.358-7.5 7.5s3.357 7.5 7.5 7.5h36.666c4.143 0 7.5-3.358 7.5-7.5s-3.357-7.5-7.5-7.5z"/>
</svg>
