<?xml version="1.0" encoding="UTF-8"?>
<svg enable-background="new 0 0 60 60" version="1.1" viewBox="0 0 60 60" xml:space="preserve" xmlns="http://www.w3.org/2000/svg">
	<path d="M30,0C13.458,0,0,13.458,0,30s13.458,30,30,30s30-13.458,30-30S46.542,0,30,0z M30,58C14.561,58,2,45.439,2,30   S14.561,2,30,2s28,12.561,28,28S45.439,58,30,58z"/>
	<path d="m31 26.021v-10.142c0-0.553-0.448-1-1-1s-1 0.447-1 1v10.142c-1.399 0.364-2.494 1.459-2.858 2.858h-7.142c-0.552 0-1 0.447-1 1s0.448 1 1 1h7.142c0.447 1.72 2 3 3.858 3 2.206 0 4-1.794 4-4 0-1.859-1.28-3.411-3-3.858zm-1 5.858c-1.103 0-2-0.897-2-2s0.897-2 2-2 2 0.897 2 2-0.897 2-2 2z"/>
	<path d="m30 9.879c0.552 0 1-0.447 1-1v-1c0-0.553-0.448-1-1-1s-1 0.447-1 1v1c0 0.553 0.448 1 1 1z"/>
	<path d="m30 49.879c-0.552 0-1 0.447-1 1v1c0 0.553 0.448 1 1 1s1-0.447 1-1v-1c0-0.553-0.448-1-1-1z"/>
	<path d="m52 28.879h-1c-0.552 0-1 0.447-1 1s0.448 1 1 1h1c0.552 0 1-0.447 1-1s-0.448-1-1-1z"/>
	<path d="m9 28.879h-1c-0.552 0-1 0.447-1 1s0.448 1 1 1h1c0.552 0 1-0.447 1-1s-0.448-1-1-1z"/>
	<path d="m44.849 13.615-0.707 0.707c-0.391 0.391-0.391 1.023 0 1.414 0.195 0.195 0.451 0.293 0.707 0.293s0.512-0.098 0.707-0.293l0.707-0.707c0.391-0.391 0.391-1.023 0-1.414s-1.023-0.39-1.414 0z"/>
	<path d="m14.444 44.021-0.707 0.707c-0.391 0.391-0.391 1.023 0 1.414 0.195 0.195 0.451 0.293 0.707 0.293s0.512-0.098 0.707-0.293l0.707-0.707c0.391-0.391 0.391-1.023 0-1.414s-1.024-0.39-1.414 0z"/>
	<path d="m45.556 44.021c-0.391-0.391-1.023-0.391-1.414 0s-0.391 1.023 0 1.414l0.707 0.707c0.195 0.195 0.451 0.293 0.707 0.293s0.512-0.098 0.707-0.293c0.391-0.391 0.391-1.023 0-1.414l-0.707-0.707z"/>
	<path d="m15.151 13.615c-0.391-0.391-1.023-0.391-1.414 0s-0.391 1.023 0 1.414l0.707 0.707c0.195 0.195 0.451 0.293 0.707 0.293s0.512-0.098 0.707-0.293c0.391-0.391 0.391-1.023 0-1.414l-0.707-0.707z"/>
</svg>
