<?xml version="1.0" encoding="UTF-8"?>
<!DOCTYPE svg  PUBLIC '-//W3C//DTD SVG 1.1//EN'  'http://www.w3.org/Graphics/SVG/1.1/DTD/svg11.dtd'>
<svg enable-background="new 0 0 349.325 349.324" version="1.1" viewBox="0 0 349.32 349.32" xml:space="preserve" xmlns="http://www.w3.org/2000/svg">
  <g fill="#eeeeee">
    <path d="m18.443 33.053c-27.047 40.598-25.42 118.77 24.388 174.26 46.217 51.49 115.16 108.63 115.74 109.1 1.475 1.345 36.772 32.915 88.887 32.915 5.043 0 10.161-0.31 15.219-0.919 56.533-6.835 77.252-43.071 84.579-64.064 3.783-10.795-2.585-24.196-13.914-29.249l-66.354-29.492c-3.184-1.412-6.992-2.158-11.009-2.158-8.201 0-16.428 3.041-21.475 7.932l-20.911 20.256c-3.103 3.011-8.633 5.032-13.757 5.032-2.184 0-4.113-0.386-5.561-1.112-14.116-7.078-36.3-21.21-61.854-48.307-22.681-24.074-33.459-40.568-38.506-50.175-2.818-5.373 0.127-14.678 4.552-19.093l18.604-18.598c7.733-7.734 11.217-21.962 7.924-32.39l-20.918-66.43c-3.185-10.107-13.922-20.557-26.442-20.557-17.349 0.592-41.69 6.792-59.189 33.053zm59.844-21.211c5.979 0.023 12.688 6.611 14.48 12.276l20.919 66.43c1.975 6.251-0.363 15.8-5 20.446l-18.605 18.596c-7.599 7.602-12.093 22.673-6.659 32.992 5.388 10.255 16.772 27.736 40.37 52.781 26.741 28.35 50.196 43.259 65.161 50.774 3.072 1.538 6.84 2.351 10.902 2.351 8.231 0 16.65-3.198 21.978-8.357l20.911-20.257c4.169-4.042 14.065-5.829 19.423-3.452l66.354 29.492c5.058 2.25 9.45 9.085 7.546 14.513-6.419 18.393-24.664 50.15-74.809 56.208-4.581 0.554-9.217 0.828-13.803 0.828-46.996 0-79.701-28.736-81.13-30.011-0.67-0.554-69.292-57.498-114.68-108.06-44.565-49.653-48.049-122.7-23.347-159.77 14.703-22.056 35.289-27.287 49.985-27.784z"/>
    <path d="m174.7 135.35c-21.678 0-39.309 17.631-39.309 39.312 0 21.678 17.631 39.309 39.309 39.309s39.309-17.631 39.309-39.309c-1e-3 -21.682-17.632-39.312-39.309-39.312zm0 66.762c-15.143 0-27.459-12.324-27.459-27.462 0-15.135 12.316-27.459 27.459-27.459 15.147 0 27.462 12.314 27.462 27.459 0 15.143-12.315 27.462-27.462 27.462z"/>
  </g>
</svg>
