<?xml version="1.0" encoding="UTF-8"?>
<svg width="480pt" height="480pt" viewBox="0 0 480 480" xmlns="http://www.w3.org/2000/svg">
<g fill="#231f20">
<path d="m424 280h-8v-56c0-17.672-14.328-32-32-32h-16v-24c0-4.418-3.582-8-8-8s-8 3.582-8 8v24h-320c-8.8359 0-16-7.1641-16-16 0-4.418-3.582-8-8-8s-8 3.582-8 8v272c0 17.672 14.328 32 32 32h352c17.672 0 32-14.328 32-32v-56h8c30.93 0 56-25.07 56-56s-25.07-56-56-56zm-392-72h352c8.8359 0 16 7.1641 16 16v16h-384v-36.32c4.8633 2.8203 10.379 4.3086 16 4.3203zm368 208h-164.96c-4.418 0-8 3.582-8 8s3.582 8 8 8h164.96v16c0 8.8359-7.1641 16-16 16h-208.8c39.309-24.617 57.562-72.285 44.758-116.86-12.805-44.574-53.578-75.281-99.957-75.281s-87.152 30.707-99.957 75.281c-12.805 44.574 5.4492 92.242 44.758 116.86h-32.801c-8.8359 0-16-7.1641-16-16v-192h384v24h-72c-30.93 0-56 25.07-56 56s25.07 56 56 56h72zm-280 48c-48.602 0-88-39.398-88-88s39.398-88 88-88 88 39.398 88 88-39.398 88-88 88zm304-88h-96c-22.09 0-40-17.91-40-40s17.91-40 40-40h96c22.09 0 40 17.91 40 40s-17.91 40-40 40z"/>
<path d="m328 312c-13.254 0-24 10.746-24 24s10.746 24 24 24 24-10.746 24-24-10.746-24-24-24zm0 32c-4.418 0-8-3.582-8-8s3.582-8 8-8 8 3.582 8 8-3.582 8-8 8z"/>
<path d="m120 344c6.6289 0 12 5.3711 12 12 0 4.418 3.582 8 8 8s8-3.582 8-8c-0.050781-12.34-8.1719-23.195-20-26.719v-9.2812c0-4.418-3.582-8-8-8s-8 3.582-8 8v9.2812c-13.367 3.9023-21.812 17.059-19.801 30.84 2.0156 13.777 13.875 23.965 27.801 23.879 6.6289 0 12 5.3711 12 12s-5.3711 12-12 12-12-5.3711-12-12c0-4.418-3.582-8-8-8s-8 3.582-8 8c0.050781 12.34 8.1719 23.195 20 26.719v9.2812c0 4.418 3.582 8 8 8s8-3.582 8-8v-9.2812c13.367-3.9023 21.812-17.059 19.801-30.84-2.0156-13.777-13.875-23.965-27.801-23.879-6.6289 0-12-5.3711-12-12s5.3711-12 12-12z"/>
<path d="m48 176c4.418 0 8-3.582 8-8v-152h176v152c0 4.418 3.582 8 8 8s8-3.582 8-8v-56h8c0 17.672 14.328 32 32 32v24c0 4.418 3.582 8 8 8s8-3.582 8-8v-32c0-4.418-3.582-8-8-8h-8c-8.8359 0-16-7.1641-16-16v-8c0-4.418-3.582-8-8-8h-16v-16h72v88c0 4.418 3.582 8 8 8s8-3.582 8-8v-96c0-4.418-3.582-8-8-8h-80v-56c0-4.418-3.582-8-8-8h-192c-4.418 0-8 3.582-8 8v160c0 4.418 3.582 8 8 8z"/>
<path d="m208 176c4.418 0 8-3.582 8-8v-96c0-4.418-3.582-8-8-8h-8c-8.8359 0-16-7.1641-16-16v-8c0-4.418-3.582-8-8-8h-64c-4.418 0-8 3.582-8 8v8c0 8.8359-7.1641 16-16 16h-8c-4.418 0-8 3.582-8 8v96c0 4.418 3.582 8 8 8s8-3.582 8-8v-88c17.672 0 32-14.328 32-32h48c0 17.672 14.328 32 32 32v88c0 4.418 3.582 8 8 8z"/>
<path d="m144 128c-22.09 0-40 17.91-40 40 0 4.418 3.582 8 8 8s8-3.582 8-8c0-13.254 10.746-24 24-24s24 10.746 24 24c0 4.418 3.582 8 8 8s8-3.582 8-8c0-22.09-17.91-40-40-40z"/>
</g>
</svg>
